HIERARCHY
ROOT Hips
{
	OFFSET 0.00 0.00 0.00
	CHANNELS 6 Xposition Yposition Zposition Xrotation Yrotation Zrotation
	JOINT Spine
	{
		OFFSET 0.00000 1.15266 1.72900
		CHANNELS 3 Xrotation Yrotation Zrotation
		JOINT Spine1
		{
			OFFSET 0.00000 0.40032 2.27031
			CHANNELS 3 Xrotation Yrotation Zrotation
			JOINT Spine2
			{
				OFFSET 0.00000 0.20092 2.29656
				CHANNELS 3 Xrotation Yrotation Zrotation
				JOINT Spine3
				{
					OFFSET 0.00000 0.00000 2.30533
					CHANNELS 3 Xrotation Yrotation Zrotation
					JOINT Neck
					{
						OFFSET 0.00000 -0.86449 6.05149
						CHANNELS 3 Xrotation Yrotation Zrotation
						JOINT Head
						{
							OFFSET 0.00000 -0.55043 3.12167
							CHANNELS 3 Xrotation Yrotation Zrotation
							End Site
							{
								OFFSET 0.00000 0.00000 3.73175
							}
						}
					}
					JOINT RightShoulder
					{
						OFFSET -0.78828 -1.31380 4.25672
						CHANNELS 3 Xrotation Yrotation Zrotation
						JOINT RightArm
						{
							OFFSET -3.91513 0.00000 0.00000
							CHANNELS 3 Xrotation Yrotation Zrotation
							JOINT RightForeArm
							{
								OFFSET -6.91491 0.00000 0.00000
								CHANNELS 3 Xrotation Yrotation Zrotation
								JOINT RightHand
								{
									OFFSET -6.09622 0.00000 0.00000
									CHANNELS 3 Xrotation Yrotation Zrotation
									JOINT RightHandEnd
									{
										OFFSET -1.74995 0.00000 0.00000
										CHANNELS 3 Xrotation Yrotation Zrotation
										End Site
										{
											OFFSET -1.74995 0.00000 0.00000
										}
									}
									JOINT RightHandThumb1
									{
										OFFSET -0.69998 -1.16663 -0.46665
										CHANNELS 3 Yrotation Xrotation Zrotation
										End Site
										{
											OFFSET -1.69032 -0.45292 0.00000
										}
									}
								}
							}
						}
					}
					JOINT LeftShoulder
					{
						OFFSET 0.78828 -1.31380 4.25672
						CHANNELS 3 Xrotation Yrotation Zrotation
						JOINT LeftArm
						{
							OFFSET 3.91513 0.00000 0.00000
							CHANNELS 3 Xrotation Yrotation Zrotation
							JOINT LeftForeArm
							{
								OFFSET 6.91491 0.00000 0.00000
								CHANNELS 3 Xrotation Yrotation Zrotation
								JOINT LeftHand
								{
									OFFSET 6.09622 0.00000 0.00000
									CHANNELS 3 Xrotation Yrotation Zrotation
									JOINT LeftHandEnd
									{
										OFFSET 1.74995 0.00000 0.00000
										CHANNELS 3 Xrotation Yrotation Zrotation
										End Site
										{
											OFFSET 1.74995 0.00000 0.00000
										}
									}
									JOINT LeftHandThumb1
									{
										OFFSET 0.69998 -1.16663 -0.46665
										CHANNELS 3 Yrotation Xrotation Zrotation
										End Site
										{
											OFFSET 1.69032 -0.45292 0.00000
										}
									}
								}
							}
						}
					}
				}
			}
		}
	}
	JOINT RightUpLeg
	{
		OFFSET -2.33857 0.00000 -0.68318
		CHANNELS 3 Xrotation Yrotation Zrotation
		JOINT RightLeg
		{
			OFFSET 0.00000 0.00000 -10.74496
			CHANNELS 3 Xrotation Yrotation Zrotation
			JOINT RightFoot
			{
				OFFSET 0.00000 0.00000 -10.93085
				CHANNELS 3 Xrotation Yrotation Zrotation
				JOINT RightToeBase
				{
					OFFSET 0.00000 -4.08727 -1.48765
					CHANNELS 3 Xrotation Yrotation Zrotation
					End Site
					{
						OFFSET 0.00000 -1.89187 -0.00000
					}
				}
			}
		}
	}
	JOINT LeftUpLeg
	{
		OFFSET 2.33857 0.00000 -0.68318
		CHANNELS 3 Xrotation Yrotation Zrotation
		JOINT LeftLeg
		{
			OFFSET 0.00000 0.00000 -10.74496
			CHANNELS 3 Xrotation Yrotation Zrotation
			JOINT LeftFoot
			{
				OFFSET 0.00000 0.00000 -10.93085
				CHANNELS 3 Xrotation Yrotation Zrotation
				JOINT LeftToeBase
				{
					OFFSET 0.00000 -4.08727 -1.48765
					CHANNELS 3 Xrotation Yrotation Zrotation
					End Site
					{
						OFFSET 0.00000 -1.89187 -0.00000
					}
				}
			}
		}
	}
}
MOTION
Frames: 17
Frame Time:	0.0333333
-3.2872 83.5848 24.6432 -5.0413 4.4294 73.0706 -1.8789 8.2444 0.4640 -2.1590 0.2631 -0.1158 13.7253 0.5753 -3.8377 -3.0758 0.5815 -1.7792 -16.6711 7.6512 3.0379 8.0563 5.2371 1.0034 -5.2929 -13.2552 8.2646 -25.8503 -1.8508 22.8065 0.0000 0.0000 33.4720 -12.0684 1.7302 5.1959 -0.0000 0.0000 -0.0000 0.0000 -0.0000 -0.0000 -3.8492 9.9439 -8.7366 10.2316 11.6538 -72.6334 -0.0000 0.0000 2.0880 1.5298 -0.5841 -7.6624 -0.0000 -0.0000 -0.0000 0.0000 0.0000 -0.0000 -19.452990 13.588465 -5.245195 15.369780 0.000000 0.000000 4.342145 1.719695 6.052235 -1.722780 0.000000 0.000000 -2.590470 -6.698665 21.166655 3.923625 0.000000 0.000000 -6.533290 1.306780 6.379370 -5.638520 0.000000 0.000000
-3.2238 83.6397 24.6073 -4.3463 4.3521 68.3007 -2.1328 8.2015 0.5885 -2.3531 0.1831 -0.1316 13.9155 0.9229 -4.1297 -3.2075 0.7753 -1.9092 -17.0689 8.9598 4.1846 7.6130 6.7537 2.3873 -6.4845 -13.2517 7.8474 -26.4943 -1.6283 23.9099 0.0000 0.0000 36.0587 -10.0749 1.8906 6.0017 0.0000 -0.0000 -0.0000 -0.0000 -0.0000 0.0000 -3.8486 9.5246 -8.9349 10.8320 12.1748 -74.1114 -0.0000 0.0000 2.4208 1.8292 -0.1967 -7.0350 -0.0000 0.0000 -0.0000 -0.0000 -0.0000 0.0000 -19.260040 14.002925 -7.112475 14.835980 0.000000 0.000000 3.957690 2.333735 7.227870 -2.425220 0.000000 0.000000 -2.153145 -6.184415 23.604710 4.929005 0.000000 0.000000 -7.529150 0.819390 7.994710 -5.327505 0.000000 0.000000
-3.1450 83.7153 24.5587 -3.1747 4.3013 63.3298 -2.4530 7.8693 0.6390 -2.5776 0.0819 -0.1477 14.1441 1.5252 -4.3095 -3.4487 1.1768 -2.0530 -18.0536 10.7397 5.5617 7.1215 8.0984 3.7320 -7.3761 -13.2614 7.7354 -27.6636 -1.0124 24.6675 -0.0000 0.0000 39.2831 -8.5018 2.2108 6.6941 0.0000 -0.0000 0.0000 -0.0000 0.0000 0.0000 -3.9605 9.0930 -9.0622 11.4466 12.9515 -75.2543 -0.0000 0.0000 3.1485 1.5633 -0.1625 -6.1647 0.0000 0.0000 -0.0000 -0.0000 0.0000 0.0000 -19.534420 14.403785 -8.961820 14.700745 0.000000 0.000000 4.395270 1.915535 7.028885 -2.419185 0.000000 0.000000 -1.747100 -5.080010 25.395490 5.366585 0.000000 0.000000 -8.229720 0.384275 10.383720 -5.204085 0.000000 0.000000
-3.0566 83.7930 24.4960 -1.7796 4.0590 58.2432 -2.4416 7.2151 0.5508 -2.5976 -0.1542 -0.2047 13.9521 2.5506 -4.4237 -3.8334 1.7675 -2.2789 -19.4014 12.4341 7.1120 6.6167 9.2400 4.9970 -8.0056 -13.0898 7.8292 -29.1171 -0.5345 25.1156 -0.0000 0.0000 42.9131 -7.2026 2.8757 7.3892 0.0000 0.0000 0.0000 0.0000 -0.0000 -0.0000 -3.9407 8.5174 -9.0676 11.9560 13.2333 -76.1119 -0.0000 0.0000 4.2023 1.5477 0.1983 -5.1547 -0.0000 -0.0000 -0.0000 0.0000 0.0000 -0.0000 -20.096100 14.603025 -11.812805 14.951665 0.000000 0.000000 5.126950 1.069615 5.395525 -1.908165 0.000000 0.000000 -1.486745 -3.716100 26.774530 5.839355 0.000000 0.000000 -8.902580 0.150610 13.169425 -5.180285 0.000000 0.000000
-2.9742 83.8492 24.4185 -0.2761 3.7306 53.1565 -2.1993 6.4009 0.3721 -2.4433 -0.4578 -0.2719 13.3479 3.7406 -4.5870 -4.2605 2.4329 -2.5264 -20.8953 13.7010 8.5905 5.8273 10.2926 6.2046 -8.4533 -12.7866 7.8324 -30.7526 -0.3641 25.6264 -0.0000 0.0000 46.5447 -6.0071 3.8741 8.1900 -0.0000 0.0000 0.0000 0.0000 -0.0000 -0.0000 -3.6911 7.7320 -9.0860 12.1585 13.0435 -76.5170 -0.0000 0.0000 5.0713 2.0522 1.1280 -4.3837 0.0000 -0.0000 0.0000 0.0000 0.0000 -0.0000 -20.956300 14.416535 -15.074000 15.491245 0.000000 0.000000 5.054275 1.027455 2.470335 -1.464125 0.000000 0.000000 -1.832695 -2.561885 28.324080 7.223495 0.000000 0.000000 -9.995085 -0.009700 15.679985 -4.948575 0.000000 0.000000
-2.8945 83.8614 24.3347 1.0771 3.6041 48.1368 -2.0362 5.4214 0.1848 -2.2981 -0.7702 -0.3420 12.6775 4.4800 -4.8800 -4.5648 3.0830 -2.7555 -22.5831 14.7525 9.9368 4.6405 11.2359 7.2943 -8.4899 -12.3910 7.9505 -32.7860 -0.2694 26.3261 -0.0000 0.0001 49.9648 -5.1153 5.0885 9.0891 -0.0000 -0.0000 -0.0000 -0.0000 -0.0000 0.0000 -3.4461 6.8819 -9.0863 12.1523 13.1700 -76.3282 -0.0000 0.0000 5.3561 2.6133 1.8846 -3.9379 -0.0000 0.0000 -0.0000 -0.0000 -0.0000 0.0000 -21.836135 13.458075 -17.759235 15.702725 0.000000 0.000000 4.441850 1.229160 -1.348290 -1.278315 0.000000 0.000000 -2.765825 -2.061830 29.995010 9.519940 0.000000 0.000000 -11.450540 -0.165505 17.938690 -4.650735 0.000000 0.000000
-2.8033 83.8059 24.2499 2.0938 3.6305 43.2759 -1.9245 4.4370 0.0502 -2.1554 -1.0101 -0.4241 12.0876 4.3653 -5.3496 -4.7251 3.6305 -2.9803 -24.4552 15.5967 11.0934 3.2063 11.9054 8.1044 -8.1494 -11.7278 8.3802 -35.1031 -0.5121 26.9142 -0.0000 0.0001 53.1564 -4.6519 6.3152 9.8545 -0.0000 0.0000 -0.0000 0.0000 0.0000 -0.0000 -3.2718 6.0866 -9.0640 12.0476 14.1581 -75.6746 -0.0000 0.0000 5.3445 2.5656 1.7966 -3.6405 -0.0000 -0.0000 -0.0000 0.0000 -0.0000 -0.0000 -22.307120 11.584675 -19.830175 15.291580 0.000000 0.000000 3.857305 0.587750 -4.339865 -1.098115 0.000000 0.000000 -3.657305 -2.137055 31.038640 12.008400 0.000000 0.000000 -12.894860 -0.083225 20.328720 -4.473765 0.000000 0.000000
-2.7058 83.6644 24.1583 2.9008 3.5311 38.7569 -1.6835 3.6787 -0.0453 -1.9211 -1.0767 -0.4844 11.5168 3.7480 -5.9902 -4.8858 3.9538 -3.1802 -26.2622 15.8901 11.8199 1.7413 12.2486 8.4896 -7.9900 -10.8639 8.6978 -37.0684 -1.6167 27.2552 -0.0000 0.0001 56.0243 -4.3028 7.2285 10.2714 0.0000 -0.0000 -0.0000 -0.0000 0.0000 -0.0000 -2.9680 5.3488 -9.2399 11.7819 15.7483 -74.8367 -0.0000 0.0000 5.5696 2.1243 1.3037 -3.5832 -0.0000 -0.0000 0.0000 0.0000 0.0000 -0.0000 -22.322760 9.040710 -21.014480 14.593645 0.000000 0.000000 3.418195 0.013745 -4.974390 -0.927775 0.000000 0.000000 -4.147670 -2.441100 31.094230 14.427500 0.000000 0.000000 -14.344535 0.560565 22.348575 -4.198960 0.000000 0.000000
-2.6157 83.4375 24.0609 3.6577 3.3544 34.5722 -1.3685 2.8564 -0.0650 -1.7301 -1.0215 -0.5220 11.1263 3.2342 -6.6256 -5.1663 4.0716 -3.3259 -27.9937 15.8015 12.1313 0.3403 12.3566 8.4603 -8.2551 -10.2643 8.7027 -38.4875 -3.2428 27.6225 -0.0000 0.0001 58.4046 -3.7309 7.6977 10.4594 0.0000 -0.0000 0.0000 0.0000 0.0000 0.0000 -2.5334 4.9299 -9.7916 11.4258 16.9457 -73.8337 -0.0000 0.0000 5.9104 2.0236 1.3110 -3.9332 0.0000 -0.0000 0.0000 -0.0000 0.0000 -0.0000 -22.197045 6.171025 -20.204770 13.830005 0.000000 0.000000 3.309055 1.082875 -4.104755 -0.838525 0.000000 0.000000 -4.322685 -2.939795 30.319200 16.876690 0.000000 0.000000 -15.886095 1.904245 23.266830 -3.938520 0.000000 0.000000
-2.5317 83.1441 23.9819 4.4208 3.5052 30.3996 -1.2609 1.5478 0.0155 -1.7557 -1.1613 -0.5680 11.1304 2.8287 -7.0081 -5.4977 4.2670 -3.4245 -30.0398 15.8768 12.5780 -1.1270 12.1904 8.2718 -8.5454 -10.0128 9.1209 -39.9145 -4.7663 27.9679 -0.0000 0.0001 60.4164 -3.1055 8.0547 10.6695 -0.0000 0.0000 -0.0000 -0.0000 -0.0000 -0.0000 -2.1927 5.1105 -10.4629 11.3294 16.7874 -72.6040 -0.0000 0.0000 5.8130 1.9926 1.8478 -4.3908 0.0000 -0.0000 0.0000 -0.0000 0.0000 0.0000 -22.417790 3.482135 -17.071075 13.361910 0.000000 0.000000 3.320955 2.963500 -3.674995 -0.585990 0.000000 0.000000 -4.383970 -3.869270 28.974415 19.326730 0.000000 0.000000 -17.120720 4.020150 23.193475 -4.381200 0.000000 0.000000
-2.4404 82.7906 23.9464 5.0786 3.8598 25.8822 -1.2658 0.0221 0.1636 -1.8039 -1.6526 -0.6678 11.2513 2.2705 -6.9564 -5.7522 4.6777 -3.4320 -32.2250 15.9141 13.4725 -2.9725 11.4335 8.3422 -8.3615 -9.4361 10.4963 -41.6242 -6.7114 27.7738 -0.0000 0.0001 62.1669 -3.0157 8.7012 10.8942 0.0000 0.0000 -0.0000 -0.0000 0.0000 -0.0000 -1.8896 5.4748 -10.9474 11.7054 15.4940 -71.3936 -0.0000 0.0000 5.2758 1.1106 2.2418 -4.4218 0.0000 0.0000 -0.0000 0.0000 -0.0000 0.0000 -23.094730 1.575330 -13.470220 13.939485 0.000000 0.000000 2.857025 3.368610 -3.527010 -0.262820 0.000000 0.000000 -4.189830 -5.158040 27.147085 21.812470 0.000000 0.000000 -17.392890 6.801775 22.575695 -5.671925 0.000000 0.000000
-2.3429 82.3544 23.9473 5.4735 3.5585 21.0416 -1.0052 -0.9046 0.2317 -1.5277 -2.0278 -0.7075 10.9392 1.8874 -6.3987 -5.8694 4.9282 -3.2751 -33.4739 14.8090 14.1551 -5.2838 9.8693 8.9649 -7.6489 -8.0725 12.1093 -42.9075 -10.0549 26.9240 -0.0000 0.0001 63.1238 -3.7571 9.6083 10.9555 0.0000 -0.0000 -0.0000 0.0000 -0.0000 -0.0000 -1.4238 5.1369 -11.4072 12.3167 14.6050 -70.6242 -0.0000 0.0000 4.9500 -0.1097 2.5705 -4.1603 -0.0000 -0.0000 0.0000 -0.0000 0.0000 -0.0000 -23.737415 0.738845 -11.390270 15.781350 0.000000 0.000000 1.539440 2.434460 -1.979245 -0.062390 0.000000 0.000000 -3.384540 -6.251990 24.941505 24.478240 0.000000 0.000000 -16.049805 9.577790 20.609560 -7.209830 0.000000 0.000000
-2.2684 81.8244 23.9568 5.5922 2.2438 16.1504 -0.5558 -0.9144 0.2231 -1.1442 -1.7983 -0.5978 10.3025 2.2160 -5.4331 -5.8826 4.6435 -2.9345 -33.2079 11.9567 13.8281 -7.5374 7.6841 9.9776 -6.5334 -6.4933 13.0572 -42.9516 -14.2596 26.3089 -0.0000 0.0001 62.2761 -4.8262 10.4349 10.7521 -0.0000 0.0000 -0.0000 0.0000 -0.0000 -0.0000 -1.0743 4.0563 -12.1355 12.7032 15.2203 -70.2453 -0.0000 0.0000 5.0479 0.1351 3.6534 -4.3628 -0.0000 -0.0000 0.0000 0.0000 -0.0000 0.0000 -23.966490 0.472540 -9.545770 18.269385 0.000000 0.000000 -0.372380 2.208360 0.166920 0.036295 0.000000 0.000000 -1.971585 -6.923575 22.597205 27.105675 0.000000 0.000000 -12.726560 11.415660 15.665960 -8.682965 0.000000 0.000000
-2.2518 81.2290 23.9554 5.4424 0.7854 11.5539 -0.3554 -0.5883 0.2612 -1.0332 -1.1974 -0.4129 9.8381 3.0521 -4.3357 -5.7926 3.9816 -2.5237 -32.0472 8.0357 12.5504 -9.0875 5.3254 10.8316 -5.1385 -5.2302 13.5327 -41.6159 -17.8016 26.8056 -0.0000 0.0001 59.2042 -5.3512 10.9403 10.2222 0.0000 -0.0000 -0.0000 -0.0000 0.0000 -0.0000 -1.2151 3.1452 -13.0492 12.4063 16.7054 -69.6514 -0.0000 0.0000 5.0852 1.9182 5.2334 -5.2395 -0.0000 0.0000 -0.0000 -0.0000 0.0000 0.0000 -23.753140 -0.277330 -5.996085 20.548405 0.000000 0.000000 -2.473070 3.100095 0.674625 0.145095 0.000000 0.000000 -0.339670 -7.834860 19.950730 29.246995 0.000000 0.000000 -8.003195 12.201740 7.662190 -10.585010 0.000000 0.000000
-2.2937 80.6242 23.9363 4.9859 -0.0135 7.6645 -0.4679 -0.4605 0.3558 -1.1738 -0.7230 -0.2556 9.7841 3.7731 -3.4632 -5.5321 3.3285 -2.1939 -30.8091 4.2546 10.8903 -9.7716 3.1536 11.1119 -3.8205 -3.9959 14.1614 -39.3408 -20.2362 28.2055 -0.0000 0.0001 54.5716 -5.2776 11.1937 9.4535 -0.0000 -0.0000 0.0000 -0.0000 0.0000 -0.0000 -1.6827 2.7381 -13.7828 11.1262 17.9343 -68.6039 -0.0000 0.0000 4.7414 2.9412 5.7909 -5.9523 0.0000 0.0000 0.0000 -0.0000 0.0000 -0.0000 -23.156865 -1.621945 -1.885230 22.440080 0.000000 0.000000 -4.409710 3.885920 -0.201300 0.326825 0.000000 0.000000 1.018290 -9.401580 16.166105 30.877550 0.000000 0.000000 -2.626520 12.958495 -1.866140 -12.937555 0.000000 0.000000
-2.3683 80.0618 23.9059 4.2836 -0.2779 4.7703 -0.6378 -0.3965 0.4040 -1.3419 -0.4833 -0.1693 10.0520 4.0093 -2.8304 -5.1320 2.8306 -1.9532 -29.7937 1.5670 9.3664 -9.7967 1.4107 10.7990 -2.8172 -2.6656 14.8497 -36.7000 -22.0449 30.1235 -0.0000 0.0001 49.3513 -5.3955 11.3351 8.6207 -0.0000 -0.0000 0.0000 -0.0000 0.0000 -0.0000 -2.0769 2.2770 -14.3309 8.9548 18.7483 -67.4378 -0.0000 0.0000 4.0467 2.0918 4.5077 -5.7987 0.0000 -0.0000 0.0000 0.0000 -0.0000 0.0000 -22.263175 -2.782365 0.531235 24.053040 0.000000 0.000000 -6.152720 4.037815 -0.483755 0.468690 0.000000 0.000000 1.526930 -11.217265 10.851225 32.423530 0.000000 0.000000 2.848160 13.947045 -11.387585 -13.729075 0.000000 0.000000
-2.4510 79.5682 23.8779 3.6061 -0.4581 2.7637 -0.7612 -0.2286 0.3908 -1.4648 -0.2665 -0.0876 10.3856 3.8871 -2.0660 -4.7179 2.3720 -1.6420 -28.9680 0.4237 8.2771 -9.4805 0.5318 10.1117 -1.8571 -1.8049 15.1755 -34.1205 -23.0251 32.3611 -0.0000 0.0000 44.4140 -6.1272 11.2969 7.7604 0.0000 0.0000 0.0000 -0.0000 -0.0000 0.0000 -2.3647 1.2562 -15.0870 6.5785 19.5246 -66.5657 -0.0000 0.0000 3.0716 1.1223 2.3370 -5.3664 -0.0000 0.0000 0.0000 0.0000 -0.0000 0.0000 -21.250655 -3.412385 1.218120 25.264120 0.000000 0.000000 -7.691220 4.211300 0.305045 0.523345 0.000000 0.000000 0.781480 -12.783560 5.081765 34.297015 0.000000 0.000000 6.331800 14.218365 -18.452785 -11.972040 0.000000 0.000000
